<?xml version="1.0" encoding="utf-8"?>
<!-- Generator: Adobe Illustrator 16.0.0, SVG Export Plug-In . SVG Version: 6.00 Build 0)  -->
<!DOCTYPE svg PUBLIC "-//W3C//DTD SVG 1.1//EN" "http://www.w3.org/Graphics/SVG/1.1/DTD/svg11.dtd">
<svg version="1.1" id="Layer_1" xmlns="http://www.w3.org/2000/svg" xmlns:xlink="http://www.w3.org/1999/xlink" x="0px" y="0px"
	 width="100px" height="100px" viewBox="0 0 100 100" enable-background="new 0 0 100 100" xml:space="preserve">
<g>
	
		<rect x="32.303" y="24.07" transform="matrix(-0.5658 0.8245 -0.8245 -0.5658 78.3828 13.5547)" display="none" fill="#D666A7" width="6.64" height="6.69"/>
	
		<rect x="28.547" y="29.544" transform="matrix(-0.5658 0.8245 -0.8245 -0.5658 77.0152 25.2221)" display="none" fill="#C576B1" width="6.639" height="6.691"/>
	
		<rect x="24.791" y="35.018" transform="matrix(-0.5657 0.8246 -0.8246 -0.5657 75.6474 36.8866)" display="none" fill="#A68EB7" width="6.639" height="6.691"/>
	
		<rect x="21.034" y="40.493" transform="matrix(-0.5658 0.8246 -0.8246 -0.5658 74.2786 48.5577)" display="none" fill="#84A5B5" width="6.639" height="6.69"/>
	
		<rect x="17.277" y="45.966" transform="matrix(-0.566 0.8244 -0.8244 -0.566 72.9071 60.2392)" display="none" fill="#65BCB1" width="6.639" height="6.689"/>
	
		<rect x="13.52" y="51.441" transform="matrix(-0.5658 0.8246 -0.8246 -0.5658 71.5413 71.897)" display="none" fill="#56C0A5" width="6.64" height="6.69"/>
	<path fill="#5C6772" d="M25.678,50.296L44.912,21.62c0.292-0.436,0.176-1.026-0.259-1.317c-0.436-0.292-1.026-0.176-1.318,0.259
		L5.894,76.381v-9.909l30.482-45.445c0.293-0.435,0.176-1.026-0.259-1.317c-0.436-0.292-1.026-0.176-1.318,0.26L5.894,63.062V20.498
		c0-0.524-0.425-0.95-0.95-0.95c-0.524,0-0.949,0.425-0.949,0.95v59.004c0,0.419,0.273,0.787,0.673,0.909
		c0.092,0.028,0.185,0.041,0.276,0.041c0.311,0,0.61-0.152,0.79-0.42l18.8-28.031l18.8,28.031c0.183,0.273,0.483,0.42,0.791,0.42
		c0.181,0,0.365-0.051,0.528-0.162c0.436-0.291,0.551-0.882,0.259-1.317L25.678,50.296z"/>
	
		<rect x="77.718" y="35.045" transform="matrix(-0.5188 0.8549 -0.8549 -0.5188 155.3078 -10.4767)" display="none" fill="#F6D941" width="5.77" height="6.856"/>
	
		<rect x="74.723" y="39.977" transform="matrix(-0.5191 0.8547 -0.8547 -0.5191 154.9921 -0.3977)" display="none" fill="#F6BC4A" width="5.77" height="6.854"/>
	
		<rect x="71.73" y="44.908" transform="matrix(-0.5188 0.8549 -0.8549 -0.5188 154.648 9.6267)" display="none" fill="#F79B4E" width="5.769" height="6.857"/>
	
		<rect x="68.734" y="49.841" transform="matrix(-0.5191 0.8547 -0.8547 -0.5191 154.325 19.7017)" display="none" fill="#F47E5C" width="5.77" height="6.855"/>
	
		<rect x="65.741" y="54.772" transform="matrix(-0.519 0.8548 -0.8548 -0.519 153.9903 29.7441)" display="none" fill="#F16061" width="5.769" height="6.857"/>
	
		<rect x="62.748" y="59.704" transform="matrix(-0.5188 0.8549 -0.8549 -0.5188 153.6552 39.7813)" display="none" fill="#EF446E" width="5.769" height="6.857"/>
	<path fill="#5C6772" d="M95.055,78.553H61.477l34.392-56.97c0.177-0.294,0.183-0.66,0.014-0.958
		c-0.168-0.298-0.485-0.483-0.827-0.483H51.603c-0.524,0-0.95,0.426-0.95,0.95c0,0.525,0.425,0.95,0.95,0.95h33.763L50.975,79.012
		c-0.271,0.448-0.126,1.033,0.322,1.304c0.153,0.093,0.323,0.137,0.49,0.137c0.321,0,0.635-0.163,0.813-0.459l34.984-57.952h5.787
		L58.98,79.012c-0.177,0.294-0.182,0.66-0.014,0.958s0.485,0.482,0.828,0.482h35.26c0.524,0,0.95-0.425,0.95-0.95
		C96.005,78.978,95.579,78.553,95.055,78.553z"/>
</g>
</svg>
