<?xml version="1.0" encoding="utf-8"?>
<!-- Generator: Adobe Illustrator 16.0.0, SVG Export Plug-In . SVG Version: 6.00 Build 0)  -->
<!DOCTYPE svg PUBLIC "-//W3C//DTD SVG 1.1//EN" "http://www.w3.org/Graphics/SVG/1.1/DTD/svg11.dtd">
<svg version="1.1" id="Layer_1" xmlns="http://www.w3.org/2000/svg" xmlns:xlink="http://www.w3.org/1999/xlink" x="0px" y="0px"
	 width="100px" height="100px" viewBox="0 0 100 100" enable-background="new 0 0 100 100" xml:space="preserve">
<g>
	
		<rect x="31.475" y="24.506" transform="matrix(0.5658 -0.8245 0.8245 0.5658 -7.6272 41.2171)" fill="#D666A7" width="7.7" height="6.69"/>
	
		<rect x="27.298" y="30.201" transform="matrix(0.5658 -0.8245 0.8245 0.5658 -14.02 40.4698)" fill="#C576B1" width="8.236" height="6.691"/>
	
		<rect x="23.875" y="35.498" transform="matrix(0.5658 -0.8246 0.8246 0.5658 -19.9675 39.7718)" fill="#A68EB7" width="7.805" height="6.691"/>
	
		<rect x="19.941" y="41.065" transform="matrix(0.5658 -0.8246 0.8246 0.5658 -26.2166 39.038)" fill="#84A5B5" width="8.032" height="6.69"/>
	
		<rect x="16.255" y="46.504" transform="matrix(0.566 -0.8244 0.8244 0.566 -32.316 38.3083)" fill="#65BCB1" width="7.945" height="6.689"/>
	
		<rect x="13.517" y="51.441" transform="matrix(0.5658 -0.8245 0.8245 0.5658 -37.8625 37.6708)" fill="#5FD3B2" width="6.641" height="6.69"/>
	<path fill="#334455" d="M25.678,50.296L44.912,21.62c0.292-0.436,0.176-1.026-0.259-1.317c-0.436-0.292-1.026-0.176-1.318,0.259
		L5.894,76.381v-9.908l30.482-45.446c0.293-0.435,0.176-1.026-0.259-1.317c-0.436-0.292-1.026-0.176-1.318,0.26L5.894,63.062V20.498
		c0-0.524-0.425-0.95-0.95-0.95c-0.524,0-0.949,0.425-0.949,0.95v59.004c0,0.419,0.273,0.787,0.673,0.909
		c0.092,0.028,0.185,0.041,0.276,0.041c0.311,0,0.61-0.152,0.79-0.42l18.8-28.031l18.8,28.031c0.183,0.272,0.483,0.42,0.791,0.42
		c0.181,0,0.365-0.052,0.528-0.162c0.436-0.291,0.551-0.882,0.259-1.317L25.678,50.296z"/>
	
		<rect x="76.192" y="35.901" transform="matrix(0.5189 -0.8548 0.8548 0.5189 4.9033 87.3711)" fill="#F6D941" width="7.772" height="6.857"/>
	
		<rect x="73.334" y="40.757" transform="matrix(0.5192 -0.8547 0.8547 0.5192 -0.6737 87.1702)" fill="#F6BC4A" width="7.599" height="6.853"/>
	
		<rect x="70.627" y="45.529" transform="matrix(0.5188 -0.8549 0.8549 0.5188 -6.1294 87.0264)" fill="#F79B4E" width="7.221" height="6.857"/>
	
		<rect x="67.878" y="50.326" transform="matrix(0.519 -0.8548 0.8548 0.519 -11.6388 86.8252)" fill="#F47E5C" width="6.898" height="6.855"/>
	
		<rect x="64.509" y="55.464" transform="matrix(0.5189 -0.8548 0.8548 0.5189 -17.5303 86.6375)" fill="#F16061" width="7.389" height="6.857"/>
	
		<rect x="62.748" y="59.709" transform="matrix(0.5188 -0.8549 0.8549 0.5188 -22.3945 86.4861)" fill="#EF446E" width="5.769" height="6.857"/>
	<path fill="#334455" d="M95.055,78.553H61.477l34.393-56.97c0.177-0.294,0.183-0.66,0.014-0.958
		c-0.168-0.298-0.484-0.483-0.826-0.483H51.604c-0.524,0-0.951,0.426-0.951,0.95c0,0.525,0.426,0.95,0.951,0.95h33.763
		l-34.392,56.97c-0.271,0.448-0.125,1.033,0.322,1.305c0.153,0.093,0.323,0.137,0.49,0.137c0.32,0,0.635-0.163,0.812-0.459
		l34.984-57.952h5.787L58.98,79.012c-0.178,0.295-0.183,0.66-0.015,0.959c0.168,0.297,0.485,0.481,0.828,0.481h35.261
		c0.523,0,0.949-0.425,0.949-0.95C96.005,78.979,95.579,78.553,95.055,78.553z"/>
</g>
</svg>
